<svg width="80" height="80" viewBox="0 0 80 80" fill="none" xmlns="http://www.w3.org/2000/svg">
<g id="Group 145">
<path id="Vector" d="M80 40C80 47.9112 77.654 55.6448 73.2588 62.2228C68.8635 68.8007 62.6163 73.9276 55.3073 76.9551C47.9983 79.9826 39.9556 80.7748 32.1963 79.2314C24.4371 77.688 17.3099 73.8783 11.7158 68.2842C6.12168 62.6901 2.31204 55.5628 0.76863 47.8036C-0.774778 40.0444 0.0172632 32.0017 3.04477 24.6927C6.07227 17.3836 11.1992 11.1365 17.7771 6.7412C24.3551 2.34595 32.0888 0 40 0C50.6087 0 60.7828 4.21428 68.2842 11.7157C75.7857 19.2172 80 29.3913 80 40Z" fill="#343434"/>
<path id="Vector_2" d="M78.6397 50.287L60.9776 32.6462C60.6799 32.3568 60.3253 32.1324 59.9362 31.9873L46.8863 18.9374C46.4588 18.5245 45.9203 18.2449 45.3366 18.1329C44.7529 18.021 44.1493 18.0814 43.5993 18.3067C43.0494 18.5321 42.5769 18.9128 42.2397 19.4022C41.9025 19.8916 41.715 20.4686 41.7003 21.0628V20.744C41.7029 22.2701 41.4016 23.7815 40.8141 25.19C40.2266 26.5986 39.3647 27.876 38.2784 28.948C37.3678 29.8616 36.2839 30.5842 35.0903 31.0734C33.8976 31.5667 32.6191 31.8195 31.3283 31.8173H30.4781L29.3943 30.7334C29.1006 30.4582 28.7127 30.3061 28.3103 30.3083H19.7025C19.5035 30.3054 19.3059 30.3425 19.1216 30.4173C18.9372 30.4921 18.7697 30.6032 18.629 30.7439C18.4883 30.8846 18.3772 31.0521 18.3024 31.2365C18.2275 31.4208 18.1905 31.6183 18.1934 31.8173V56.4081C18.1934 56.606 18.2329 56.802 18.3095 56.9845C18.3861 57.1669 18.4984 57.3323 18.6398 57.4708L41.1477 79.9788C49.7634 79.7354 58.0695 76.7126 64.8264 71.3614C71.5833 66.0103 76.4287 58.6178 78.6397 50.287Z" fill="#111111"/>
<path id="Vector_3" d="M61.0414 32.6463C60.7646 32.3617 60.4344 32.1345 60.0697 31.9776C59.705 31.8208 59.3129 31.7375 58.916 31.7324H44.3996V37.8748H58.916C59.7128 37.8612 60.4738 37.5416 61.0414 36.9821C61.5871 36.4091 61.8916 35.6481 61.8916 34.8567C61.8916 34.0654 61.5871 33.3044 61.0414 32.7313V32.6463Z" fill="white"/>
<path id="Vector_4" d="M59.3623 38.8309C59.0863 38.5454 58.7562 38.3175 58.3913 38.1606C58.0265 38.0037 57.6341 37.9209 57.2369 37.917H41.6577V44.0594H57.2369C57.8397 44.0525 58.4271 43.8678 58.9253 43.5284C59.4235 43.189 59.8104 42.71 60.0374 42.1516C60.2644 41.5931 60.3215 40.9801 60.2014 40.3893C60.0813 39.7986 59.7894 39.2564 59.3623 38.8309Z" fill="white"/>
<path id="Vector_5" d="M57.5982 44.9733C57.0328 44.4079 56.2721 44.0808 55.4728 44.0593H38.7885V50.2017H55.4728C56.2696 50.1881 57.0307 49.8685 57.5982 49.3091C58.144 48.736 58.4484 47.975 58.4484 47.1837C58.4484 46.3923 58.144 45.6313 57.5982 45.0583V44.9733Z" fill="white"/>
<path id="Vector_6" d="M55.8979 51.1158C55.3301 50.5541 54.5709 50.2276 53.7725 50.2019H35.983V56.3656H53.7513C54.3539 56.353 54.9397 56.164 55.436 55.8219C55.9323 55.4798 56.3174 54.9996 56.5436 54.4409C56.7698 53.8822 56.8271 53.2694 56.7086 52.6784C56.59 52.0874 56.3008 51.5441 55.8767 51.1158H55.8979Z" fill="white"/>
<path id="Vector_7" d="M46.8437 18.8734C46.2737 18.3176 45.5142 17.9986 44.7183 17.9807C43.9215 17.9943 43.1605 18.3139 42.5929 18.8734C42.0297 19.4384 41.7094 20.201 41.7003 20.9988V20.7012C41.7001 22.2238 41.3975 23.7311 40.8101 25.1358C40.2227 26.5405 39.3621 27.8145 38.2784 28.884C37.3677 29.7975 36.2839 30.5201 35.0903 31.0094C33.8976 31.5027 32.6191 31.7555 31.3283 31.7533H29.8405V56.3441H44.7183V34.4313L46.1211 30.9881C46.6824 29.6175 47.1025 28.1932 47.375 26.7373C47.6523 25.2871 47.7946 23.8143 47.8001 22.3378V21.0413C47.7928 20.6345 47.7045 20.2332 47.5403 19.861C47.3761 19.4888 47.1392 19.153 46.8437 18.8734Z" fill="white"/>
<path id="Vector_8" d="M29.7343 44.0594H18.0872V31.7746C18.0927 31.3725 18.2564 30.9887 18.5427 30.7063C18.8291 30.4239 19.2152 30.2656 19.6174 30.2656H28.119C28.5212 30.2656 28.9072 30.4239 29.1936 30.7063C29.48 30.9887 29.6437 31.3725 29.6493 31.7746L29.7343 44.0594Z" fill="#C70039"/>
<path id="Vector_9" d="M29.7343 56.3654C29.7287 56.7676 29.5651 57.1513 29.2787 57.4337C28.9923 57.7161 28.6063 57.8744 28.2041 57.8744H19.7025C19.3003 57.8744 18.9142 57.7161 18.6278 57.4337C18.3415 57.1513 18.1777 56.7676 18.1721 56.3654V44.0593H29.8193L29.7343 56.3654Z" fill="#900C3F"/>
<path id="Vector_10" d="M25.356 53.2839C25.356 53.5656 25.2725 53.8409 25.116 54.075C24.9595 54.3092 24.7372 54.4917 24.477 54.5995C24.2168 54.7073 23.9304 54.7355 23.6542 54.6805C23.3779 54.6256 23.1243 54.49 22.9251 54.2908C22.726 54.0917 22.5902 53.8379 22.5353 53.5617C22.4803 53.2855 22.5086 52.9991 22.6164 52.7389C22.7241 52.4787 22.9067 52.2563 23.1408 52.0999C23.375 51.9434 23.6504 51.8599 23.932 51.8599C24.3097 51.8599 24.6719 52.0099 24.9389 52.277C25.206 52.544 25.356 52.9062 25.356 53.2839Z" fill="#111111"/>
</g>
</svg>
