<svg width="80" height="80" viewBox="0 0 80 80" fill="none" xmlns="http://www.w3.org/2000/svg">
<g id="Group 146">
<path id="Vector" d="M79.9999 40.0213C79.9957 47.9316 77.6462 55.6631 73.2484 62.2383C68.8506 68.8134 62.602 73.937 55.2926 76.9613C47.9831 79.9855 39.9412 80.7746 32.1833 79.2288C24.4255 77.683 17.3002 73.8717 11.7082 68.2767C6.11624 62.6818 2.30874 55.5544 0.767053 47.7958C-0.774632 40.0371 0.0187381 31.9956 3.04687 24.6878C6.075 17.38 11.2019 11.134 17.7794 6.73973C24.3569 2.34541 32.0896 1.11786e-06 40 0C45.2546 -7.42569e-07 50.4577 1.03534 55.3122 3.04686C60.1666 5.05837 64.5771 8.00666 68.2917 11.7233C72.0063 15.4399 74.9523 19.8519 76.9612 24.7074C78.9702 29.5629 80.0027 34.7666 79.9999 40.0213Z" fill="#343434"/>
<path id="Vector_2" d="M79.9999 42.2539L56.6081 18.8621C56.3507 18.6074 56.0451 18.4066 55.7091 18.2715C55.3732 18.1364 55.0138 18.0697 54.6517 18.0753H22.5836C21.8316 18.0809 21.1123 18.3836 20.5825 18.9174C20.0527 19.4512 19.7553 20.1727 19.7553 20.9248C19.7448 21.0806 19.7448 21.2369 19.7553 21.3927L19.8829 21.818C19.9307 21.9493 19.9876 22.0772 20.0531 22.2007C20.1241 22.324 20.2098 22.4383 20.3082 22.541L20.521 22.7536L25.2631 27.4745V58.8408C25.2577 59.4663 25.4679 60.0746 25.8584 60.5633L26.3476 61.0737L44.7207 79.4256C54.0208 78.3355 62.6444 74.0189 69.0904 67.2271C75.5364 60.4353 79.3969 51.5982 79.9999 42.2539Z" fill="#111111"/>
<path id="Vector_3" d="M22.5837 18.0755C22.9579 18.0755 23.3285 18.1492 23.6742 18.2924C24.02 18.4356 24.334 18.6455 24.5986 18.9101C24.8632 19.1747 25.0731 19.4889 25.2163 19.8346C25.3595 20.1803 25.4333 20.5509 25.4333 20.9251V59.2026C25.4389 59.9509 25.7385 60.6671 26.2678 61.1963C26.797 61.7255 27.5131 62.0253 28.2615 62.0308H57.4375V20.9251C57.4404 20.5501 57.3686 20.1783 57.2264 19.8313C57.0842 19.4843 56.8744 19.169 56.6092 18.9038C56.344 18.6387 56.0288 18.4289 55.6818 18.2867C55.3348 18.1445 54.9629 18.0727 54.5879 18.0755H22.5837Z" fill="white"/>
<path id="Vector_4" d="M60.2233 59.1177C60.2261 58.7445 60.1549 58.3745 60.014 58.0289C59.8732 57.6833 59.6654 57.369 59.4025 57.1041C59.1396 56.8392 58.8268 56.629 58.4822 56.4855C58.1377 56.342 57.7682 56.2682 57.395 56.2682H28.2191C28.6125 56.2341 29.0088 56.2822 29.3826 56.4094C29.7565 56.5365 30.0999 56.7401 30.391 57.007C30.6821 57.274 30.9145 57.5985 31.0735 57.96C31.2324 58.3215 31.3145 58.7122 31.3145 59.1071C31.3145 59.502 31.2324 59.8927 31.0735 60.2542C30.9145 60.6157 30.6821 60.9402 30.391 61.2072C30.0999 61.4741 29.7565 61.6777 29.3826 61.8048C29.0088 61.932 28.6125 61.9801 28.2191 61.946H57.395C58.1451 61.946 58.8644 61.648 59.3948 61.1176C59.9252 60.5872 60.2233 59.8679 60.2233 59.1177Z" fill="#CCCBCA"/>
<path id="Vector_5" d="M22.5837 18.0754C21.8732 18.137 21.2117 18.4627 20.7296 18.9883C20.2476 19.5139 19.9801 20.2012 19.9801 20.9144C19.9801 21.6275 20.2476 22.3148 20.7296 22.8404C21.2117 23.366 21.8732 23.6917 22.5837 23.7533H25.4333V20.925C25.4333 20.1692 25.133 19.4444 24.5986 18.91C24.0642 18.3756 23.3395 18.0754 22.5837 18.0754Z" fill="#CCCBCA"/>
<path id="Vector_6" d="M53.6521 51.7173H45.0397V52.7593H53.6521V51.7173Z" fill="#D9D8D7"/>
<path id="Vector_7" d="M53.6521 29.6011H29.1333V30.6431H53.6521V29.6011Z" fill="#D9D8D7"/>
<path id="Vector_8" d="M53.6521 27.0068H29.1333V28.0488H53.6521V27.0068Z" fill="#D9D8D7"/>
<path id="Vector_9" d="M41.3822 24.4338H29.1333V25.4758H41.3822V24.4338Z" fill="#111111"/>
<path id="Vector_10" d="M53.6734 49.4842H29.112V32.876H53.6734V49.4842ZM29.7712 48.8036H52.9929V33.5352H29.7712V48.8036Z" fill="#E6E5E5"/>
<path id="Vector_11" d="M53.3545 44.8274H29.4524V45.5079H53.3545V44.8274Z" fill="#E6E5E5"/>
<path id="Vector_12" d="M53.3545 40.8293H29.4524V41.5099H53.3545V40.8293Z" fill="#E6E5E5"/>
<path id="Vector_13" d="M53.3545 36.8528H29.4524V37.5333H53.3545V36.8528Z" fill="#E6E5E5"/>
<path id="Vector_14" d="M49.6971 33.2166H49.0166V49.1443H49.6971V33.2166Z" fill="#E6E5E5"/>
<path id="Vector_15" d="M45.7202 33.2166H45.0397V49.1443H45.7202V33.2166Z" fill="#E6E5E5"/>
<path id="Vector_16" d="M41.7439 33.2166H41.0634V49.1443H41.7439V33.2166Z" fill="#E6E5E5"/>
<path id="Vector_17" d="M37.7458 33.2166H37.0652V49.1443H37.7458V33.2166Z" fill="#E6E5E5"/>
<path id="Vector_18" d="M33.7694 33.2166H33.0889V49.1443H33.7694V33.2166Z" fill="#E6E5E5"/>
<path id="Vector_19" d="M29.75 49.4416L29.1333 48.8249L33.2375 44.7207H37.2141L45.1886 36.7462H49.1652L53.0355 32.8972L53.6521 33.5139L49.5267 37.6394H45.5501L37.5969 45.5926H33.599L29.75 49.4416Z" fill="#C70039"/>
<path id="Vector_20" d="M30.3881 49.1442C30.388 49.3343 30.3313 49.5202 30.2252 49.678C30.1191 49.8357 29.9684 49.9584 29.7923 50.0301C29.6162 50.1019 29.4227 50.1195 29.2366 50.0809C29.0504 50.0422 28.8799 49.9489 28.747 49.813C28.614 49.677 28.5246 49.5045 28.4901 49.3175C28.4556 49.1305 28.4776 48.9375 28.5533 48.763C28.629 48.5886 28.755 48.4406 28.9152 48.3381C29.0753 48.2355 29.2623 48.183 29.4524 48.1872C29.7025 48.1928 29.9405 48.2961 30.1154 48.4749C30.2903 48.6538 30.3881 48.894 30.3881 49.1442Z" fill="#C70039"/>
<path id="Vector_21" d="M34.3859 45.1464C34.3902 45.3365 34.3377 45.5235 34.2351 45.6837C34.1326 45.8438 33.9846 45.9698 33.8102 46.0455C33.6357 46.1212 33.4427 46.1432 33.2557 46.1087C33.0687 46.0742 32.8962 45.9848 32.7603 45.8519C32.6243 45.7189 32.5311 45.5485 32.4924 45.3623C32.4537 45.1761 32.4714 44.9826 32.5431 44.8065C32.6149 44.6304 32.7375 44.4797 32.8953 44.3736C33.0531 44.2675 33.2388 44.2107 33.429 44.2107C33.6791 44.2106 33.9195 44.3085 34.0983 44.4834C34.2772 44.6583 34.3804 44.8963 34.3859 45.1464Z" fill="#C70039"/>
<path id="Vector_22" d="M38.3625 45.1464C38.3668 45.3365 38.3143 45.5235 38.2117 45.6837C38.1092 45.8438 37.9612 45.9698 37.7868 46.0455C37.6123 46.1212 37.4193 46.1432 37.2323 46.1087C37.0453 46.0742 36.8728 45.9848 36.7369 45.8519C36.6009 45.7189 36.5077 45.5485 36.469 45.3623C36.4303 45.1761 36.448 44.9826 36.5197 44.8065C36.5915 44.6304 36.7141 44.4797 36.8719 44.3736C37.0297 44.2675 37.2154 44.2107 37.4056 44.2107C37.6557 44.2106 37.896 44.3085 38.0749 44.4834C38.2538 44.6583 38.357 44.8963 38.3625 45.1464Z" fill="#C70039"/>
<path id="Vector_23" d="M45.38 38.15C45.9085 38.15 46.337 37.7215 46.337 37.193C46.337 36.6645 45.9085 36.2361 45.38 36.2361C44.8515 36.2361 44.4232 36.6645 44.4232 37.193C44.4232 37.7215 44.8515 38.15 45.38 38.15Z" fill="#C70039"/>
<path id="Vector_24" d="M50.2285 37.193C50.2285 37.3823 50.1723 37.5673 50.0672 37.7247C49.962 37.882 49.8127 38.0047 49.6378 38.0771C49.463 38.1496 49.2705 38.1685 49.0849 38.1316C48.8993 38.0947 48.7288 38.0035 48.5949 37.8697C48.4611 37.7359 48.3699 37.5653 48.333 37.3797C48.2961 37.1941 48.3151 37.0017 48.3875 36.8268C48.46 36.652 48.5825 36.5025 48.7399 36.3974C48.8973 36.2922 49.0823 36.2361 49.2715 36.2361C49.5253 36.2361 49.7688 36.3369 49.9483 36.5164C50.1277 36.6958 50.2285 36.9393 50.2285 37.193Z" fill="#C70039"/>
<path id="Vector_25" d="M54.2902 33.2162C54.2902 33.47 54.1894 33.7134 54.01 33.8929C53.8305 34.0723 53.5872 34.1732 53.3334 34.1732C53.0796 34.1732 52.8361 34.0723 52.6566 33.8929C52.4772 33.7134 52.3764 33.47 52.3764 33.2162C52.3764 32.9624 52.4772 32.719 52.6566 32.5396C52.8361 32.3601 53.0796 32.2593 53.3334 32.2593C53.5872 32.2593 53.8305 32.3601 54.01 32.5396C54.1894 32.719 54.2902 32.9624 54.2902 33.2162Z" fill="#C70039"/>
</g>
</svg>
