<svg width="80" height="80" viewBox="0 0 80 80" fill="none" xmlns="http://www.w3.org/2000/svg">
<g id="Group 147">
<path id="Vector" d="M79.9999 40C79.9999 47.9112 77.654 55.6449 73.2587 62.2228C68.8635 68.8008 62.6164 73.9276 55.3073 76.9551C47.9983 79.9826 39.9555 80.7748 32.1963 79.2314C24.437 77.688 17.3098 73.8784 11.7157 68.2843C6.12164 62.6902 2.31203 55.5629 0.768619 47.8036C-0.774788 40.0444 0.0172941 32.0017 3.0448 24.6927C6.0723 17.3837 11.1992 11.1366 17.7772 6.74131C24.3552 2.34606 32.0887 0 39.9999 0C50.6086 0 60.7827 4.21431 68.2841 11.7158C75.7856 19.2172 79.9999 29.3913 79.9999 40Z" fill="#343434"/>
<path id="Vector_2" d="M56.6083 26.0923L39.9789 18.3943L23.3281 26.1562V40.4038C23.3046 46.3827 25.4591 52.1656 29.3888 56.6718L31.8768 59.1598L51.207 78.4899C58.1012 76.4623 64.3239 72.6196 69.2246 67.3636C74.1252 62.1076 77.5237 55.6314 79.0644 48.6123L56.6083 26.0923Z" fill="#111111"/>
<path id="Vector_3" d="M39.9787 18.3943L23.3279 26.1562V40.4038C23.3305 45.5491 24.9351 50.566 27.919 54.7578C30.9028 58.9497 35.1178 62.1084 39.9787 63.7956C44.8378 62.1057 49.0511 58.9463 52.0345 54.7551C55.0179 50.5639 56.6237 45.5484 56.6294 40.4038V26.1562L39.9787 18.3943Z" fill="white"/>
<path id="Vector_4" d="M39.9788 21.8394V60.3507C43.9593 58.7338 47.3668 55.9656 49.7648 52.4008C52.1628 48.8359 53.4424 44.6365 53.4398 40.3402V28.1126L39.9788 21.8394Z" fill="#900C3F"/>
<path id="Vector_5" d="M26.4964 28.1126V40.3402C26.4983 44.6383 27.7822 48.8383 30.1839 52.4029C32.5855 55.9675 35.9957 58.7347 39.9785 60.3507V21.8394L26.4964 28.1126Z" fill="#C70039"/>
<path id="Vector_6" d="M48.3785 40.6382C48.3575 42.2903 47.8496 43.8993 46.9186 45.2643C45.9876 46.6292 44.6748 47.6893 43.1444 48.3118C41.6139 48.9343 39.9339 49.0917 38.3145 48.7643C36.6951 48.4368 35.2082 47.639 34.0399 46.4707C32.8716 45.3024 32.0738 43.8155 31.7463 42.1961C31.4188 40.5767 31.5761 38.8965 32.1987 37.3661C32.8212 35.8357 33.8813 34.5229 35.2462 33.5919C36.6111 32.6609 38.2203 32.1531 39.8724 32.1321C42.1284 32.1321 44.2919 33.0283 45.8871 34.6235C47.4823 36.2187 48.3785 38.3822 48.3785 40.6382Z" fill="white"/>
<path id="Vector_7" d="M38.4265 44.955L34.7263 41.2549L35.9596 40.0215L38.4265 42.4883L43.9767 36.938L45.2101 38.1714L38.4265 44.955Z" fill="#111111"/>
</g>
</svg>
