<svg width="80" height="80" viewBox="0 0 80 80" fill="none" xmlns="http://www.w3.org/2000/svg">
<g id="Group 146">
<path id="Vector" d="M80 40C80 47.9113 77.654 55.6448 73.2588 62.2228C68.8635 68.8008 62.6163 73.9277 55.3073 76.9552C47.9983 79.9827 39.9557 80.7748 32.1964 79.2314C24.4372 77.688 17.3098 73.8783 11.7157 68.2843C6.12165 62.6902 2.31201 55.5629 0.768597 47.8036C-0.774812 40.0444 0.0173595 32.0017 3.04486 24.6927C6.07237 17.3836 11.1993 11.1365 17.7772 6.74121C24.3552 2.34595 32.0887 0 40 0C45.2529 0 50.4543 1.03463 55.3073 3.04482C60.1603 5.05501 64.5699 8.00139 68.2842 11.7157C71.9986 15.4301 74.9449 19.8397 76.9551 24.6927C78.9653 29.5457 80 34.7471 80 40Z" fill="#343434"/>
<path id="Vector_2" d="M79.8299 43.4432L61.509 25.1223C61.3665 24.9803 61.1975 24.8678 61.0115 24.7912C60.8255 24.7146 60.6262 24.6754 60.425 24.6759H57.407L56.5357 23.8045H50.5844L47.0776 20.2976H33.0288V24.6759H30.5845L29.713 23.8045H23.5707V24.6759H19.6812C19.2697 24.6759 18.8751 24.8394 18.5841 25.1303C18.2932 25.4213 18.1297 25.816 18.1297 26.2275V53.8576C18.1327 54.212 18.2522 54.5556 18.4697 54.8353L18.661 55.0478L43.4857 79.8725C52.863 79.0508 61.6496 74.9465 68.298 68.2826C74.9464 61.6186 79.0301 52.8224 79.8299 43.4432Z" fill="#111111"/>
<path id="Vector_3" d="M60.3826 24.6335H19.6387C18.7818 24.6335 18.0872 25.3282 18.0872 26.1851V53.7728C18.0872 54.6297 18.7818 55.3243 19.6387 55.3243H60.3826C61.2395 55.3243 61.9341 54.6297 61.9341 53.7728V26.1851C61.9341 25.3282 61.2395 24.6335 60.3826 24.6335Z" fill="#900C3F"/>
<path id="Vector_4" d="M60.3826 26.1851H19.6387V53.794H60.3826V26.1851Z" fill="#C70039"/>
<path id="Vector_5" d="M29.6708 23.7617H23.5283V24.6331H29.6708V23.7617Z" fill="#900C3F"/>
<path id="Vector_6" d="M56.493 23.7617H50.3506V24.6331H56.493V23.7617Z" fill="#900C3F"/>
<path id="Vector_7" d="M47.0351 24.6334H45.2709V22.0192H34.7503V24.6334H32.9862V20.2551H47.0351V24.6334Z" fill="#900C3F"/>
<path id="Vector_8" d="M39.9999 30.7119C38.1629 30.7119 36.3671 31.2567 34.8397 32.2773C33.3123 33.2978 32.1219 34.7484 31.4189 36.4456C30.7159 38.1427 30.532 40.0102 30.8904 41.8119C31.2488 43.6136 32.1334 45.2686 33.4323 46.5676C34.7313 47.8665 36.3862 48.7511 38.1879 49.1095C39.9896 49.4678 41.857 49.2839 43.5542 48.5809C45.2513 47.8779 46.702 46.6875 47.7226 45.1601C48.7432 43.6327 49.2879 41.8369 49.2879 40C49.2907 38.7794 49.0523 37.5704 48.5866 36.4423C48.1208 35.3141 47.4368 34.2891 46.5738 33.4261C45.7107 32.5631 44.6857 31.879 43.5576 31.4133C42.4294 30.9475 41.2204 30.7091 39.9999 30.7119Z" fill="#900C3F"/>
<path id="Vector_9" d="M39.9999 47.6938C44.2491 47.6938 47.6938 44.2491 47.6938 39.9999C47.6938 35.7506 44.2491 32.3059 39.9999 32.3059C35.7507 32.3059 32.306 35.7506 32.306 39.9999C32.306 44.2491 35.7507 47.6938 39.9999 47.6938Z" fill="white"/>
<path id="Vector_10" d="M44.4422 39.554H40.9565V40.4254H44.4422V39.554Z" fill="#EA6552"/>
<path id="Vector_11" d="M40.4464 40.9565H39.5749V44.4422H40.4464V40.9565Z" fill="#C70039"/>
<path id="Vector_12" d="M40 41.5942C39.6796 41.5941 39.3664 41.4988 39.1003 41.3204C38.8343 41.1419 38.6273 40.8884 38.5057 40.592C38.3841 40.2956 38.3534 39.9697 38.4175 39.6558C38.4815 39.3419 38.6375 39.0542 38.8655 38.8291C39.0936 38.6041 39.3834 38.4519 39.6981 38.392C40.0128 38.3321 40.3383 38.3672 40.633 38.4927C40.9278 38.6182 41.1785 38.8285 41.3534 39.097C41.5283 39.3654 41.6195 39.6798 41.6153 40.0001C41.6097 40.4248 41.437 40.8302 41.1347 41.1286C40.8323 41.4269 40.4247 41.5942 40 41.5942Z" fill="#EA6552"/>
<path id="Vector_13" d="M40.0001 40.7228C39.8934 40.741 39.7839 40.7357 39.6795 40.7073C39.575 40.6788 39.478 40.6279 39.3952 40.5581C39.3125 40.4882 39.2459 40.4012 39.2003 40.303C39.1546 40.2048 39.131 40.0978 39.131 39.9895C39.131 39.8812 39.1546 39.7742 39.2003 39.676C39.2459 39.5778 39.3125 39.4907 39.3952 39.4209C39.478 39.3511 39.575 39.3002 39.6795 39.2717C39.7839 39.2433 39.8934 39.238 40.0001 39.2562C40.1069 39.238 40.2163 39.2433 40.3208 39.2717C40.4253 39.3002 40.5223 39.3511 40.605 39.4209C40.6878 39.4907 40.7544 39.5778 40.8 39.676C40.8456 39.7742 40.8693 39.8812 40.8693 39.9895C40.8693 40.0978 40.8456 40.2048 40.8 40.303C40.7544 40.4012 40.6878 40.4882 40.605 40.5581C40.5223 40.6279 40.4253 40.6788 40.3208 40.7073C40.2163 40.7357 40.1069 40.741 40.0001 40.7228Z" fill="white"/>
<path id="Vector_14" d="M40 40.4466C40.2465 40.4466 40.4464 40.2468 40.4464 40.0003C40.4464 39.7538 40.2465 39.554 40 39.554C39.7535 39.554 39.5536 39.7538 39.5536 40.0003C39.5536 40.2468 39.7535 40.4466 40 40.4466Z" fill="#C70039"/>
<path id="Vector_15" d="M40 33.9002C40.2465 33.9002 40.4464 33.7004 40.4464 33.4539C40.4464 33.2074 40.2465 33.0076 40 33.0076C39.7535 33.0076 39.5536 33.2074 39.5536 33.4539C39.5536 33.7004 39.7535 33.9002 40 33.9002Z" fill="#C70039"/>
<path id="Vector_16" d="M36.9607 34.7718C36.9122 34.8023 36.858 34.8226 36.8014 34.8316C36.7448 34.8407 36.687 34.8381 36.6314 34.8242C36.5759 34.8103 36.5237 34.7854 36.478 34.7508C36.4323 34.7162 36.394 34.6727 36.3655 34.623C36.335 34.5745 36.3147 34.5203 36.3057 34.4637C36.2967 34.4071 36.2992 34.3493 36.3131 34.2937C36.327 34.2381 36.3519 34.1859 36.3865 34.1402C36.4211 34.0946 36.4646 34.0563 36.5143 34.0279C36.5641 33.9982 36.6195 33.9791 36.677 33.9716C36.7345 33.9641 36.7929 33.9685 36.8486 33.9844C36.9043 34.0003 36.9563 34.0275 37.0012 34.0642C37.046 34.1009 37.0829 34.1464 37.1095 34.1979C37.1643 34.2941 37.1794 34.4079 37.1516 34.515C37.1239 34.6222 37.0553 34.7143 36.9607 34.7718Z" fill="#C70039"/>
<path id="Vector_17" d="M34.7078 36.8972C34.6793 36.9469 34.6411 36.9904 34.5954 37.0249C34.5498 37.0595 34.4976 37.0845 34.442 37.0984C34.3864 37.1123 34.3285 37.1148 34.2719 37.1058C34.2153 37.0968 34.1611 37.0764 34.1126 37.046C34.0165 36.9846 33.9475 36.8887 33.9198 36.778C33.8922 36.6673 33.9079 36.5502 33.9638 36.4508C34.023 36.3522 34.1191 36.2811 34.2307 36.2532C34.3423 36.2253 34.4603 36.2429 34.559 36.3021C34.6576 36.3612 34.7288 36.4572 34.7567 36.5688C34.7846 36.6804 34.767 36.7985 34.7078 36.8972Z" fill="#C70039"/>
<path id="Vector_18" d="M33.9002 40.0003C33.9002 40.058 33.8886 40.115 33.8659 40.168C33.8432 40.221 33.81 40.2689 33.7682 40.3086C33.7265 40.3484 33.6771 40.3793 33.6231 40.3993C33.569 40.4194 33.5114 40.4283 33.4538 40.4254C33.3979 40.4254 33.3427 40.4144 33.2911 40.393C33.2395 40.3716 33.1927 40.3403 33.1532 40.3009C33.1137 40.2614 33.0825 40.2145 33.0611 40.1629C33.0397 40.1114 33.0288 40.0561 33.0288 40.0003C33.0259 39.9427 33.0347 39.8851 33.0547 39.8311C33.0748 39.777 33.1057 39.7276 33.1454 39.6859C33.1852 39.6441 33.233 39.6109 33.286 39.5882C33.339 39.5656 33.3961 39.5539 33.4538 39.554C33.5721 39.554 33.6857 39.601 33.7694 39.6847C33.8531 39.7684 33.9002 39.8819 33.9002 40.0003Z" fill="#C70039"/>
<path id="Vector_19" d="M34.7078 43.0392C34.767 43.1379 34.7847 43.256 34.7568 43.3676C34.7289 43.4792 34.6577 43.5751 34.5591 43.6343C34.4604 43.6935 34.3423 43.7111 34.2307 43.6832C34.1191 43.6553 34.0231 43.5842 33.9639 43.4856C33.9346 43.4367 33.9152 43.3826 33.9068 43.3262C33.8984 43.2699 33.9013 43.2124 33.9151 43.1572C33.9289 43.1019 33.9534 43.0499 33.9874 43.0041C34.0213 42.9584 34.0638 42.9198 34.1127 42.8904C34.1615 42.8611 34.2158 42.8417 34.2721 42.8333C34.3284 42.825 34.3859 42.8278 34.4411 42.8416C34.4964 42.8554 34.5483 42.8799 34.5941 42.9139C34.6398 42.9478 34.6785 42.9904 34.7078 43.0392Z" fill="#C70039"/>
<path id="Vector_20" d="M36.9607 45.3982C37.0569 45.4596 37.1258 45.5555 37.1535 45.6662C37.1812 45.7769 37.1655 45.8939 37.1095 45.9933C37.0811 46.0431 37.0429 46.0865 36.9972 46.1211C36.9515 46.1557 36.8993 46.1807 36.8437 46.1946C36.7881 46.2085 36.7302 46.211 36.6736 46.202C36.6171 46.193 36.5629 46.1726 36.5143 46.1421C36.4655 46.1128 36.4229 46.0742 36.389 46.0284C36.3551 45.9826 36.3306 45.9307 36.3168 45.8754C36.303 45.8201 36.3001 45.7627 36.3085 45.7063C36.3169 45.65 36.3362 45.5959 36.3656 45.547C36.3949 45.4982 36.4336 45.4556 36.4793 45.4217C36.5251 45.3877 36.5771 45.3632 36.6324 45.3494C36.6877 45.3355 36.7451 45.3328 36.8014 45.3412C36.8578 45.3495 36.9119 45.3689 36.9607 45.3982Z" fill="#C70039"/>
<path id="Vector_21" d="M40 46.0999C40.0587 46.0999 40.1167 46.1114 40.1709 46.1338C40.225 46.1562 40.2742 46.1891 40.3157 46.2306C40.3571 46.272 40.39 46.3212 40.4124 46.3754C40.4349 46.4295 40.4464 46.4876 40.4464 46.5462C40.4465 46.6038 40.4349 46.6609 40.4122 46.7139C40.3895 46.7669 40.3562 46.8148 40.3145 46.8545C40.2727 46.8943 40.2232 46.9251 40.1692 46.9452C40.1151 46.9653 40.0576 46.9742 40 46.9713C39.9442 46.9713 39.8889 46.9603 39.8374 46.9389C39.7858 46.9175 39.7389 46.8862 39.6995 46.8468C39.66 46.8073 39.6287 46.7604 39.6074 46.7088C39.586 46.6573 39.5749 46.602 39.5749 46.5462C39.572 46.4886 39.5809 46.431 39.601 46.377C39.6211 46.3229 39.6519 46.2735 39.6917 46.2318C39.7314 46.19 39.7793 46.1568 39.8323 46.1341C39.8853 46.1114 39.9424 46.0998 40 46.0999Z" fill="#C70039"/>
<path id="Vector_22" d="M43.0606 45.3984C43.1091 45.3679 43.1633 45.3476 43.2199 45.3385C43.2764 45.3295 43.3342 45.332 43.3898 45.3459C43.4454 45.3598 43.4976 45.3848 43.5433 45.4194C43.5889 45.454 43.6273 45.4975 43.6557 45.5472C43.7117 45.6466 43.7274 45.7637 43.6997 45.8744C43.672 45.9851 43.6031 46.0809 43.5069 46.1423C43.4083 46.2015 43.2901 46.2191 43.1785 46.1912C43.0669 46.1633 42.971 46.0922 42.9118 45.9935C42.8526 45.8949 42.835 45.7768 42.8629 45.6652C42.8908 45.5536 42.9619 45.4576 43.0606 45.3984Z" fill="#C70039"/>
<path id="Vector_23" d="M45.2923 43.0394C45.3537 42.9433 45.4496 42.8742 45.5603 42.8466C45.671 42.8189 45.7881 42.8347 45.8875 42.8906C45.939 42.9173 45.9845 42.9541 46.0212 42.999C46.0579 43.0438 46.0851 43.0957 46.101 43.1515C46.1169 43.2072 46.1212 43.2656 46.1137 43.3231C46.1062 43.3806 46.0871 43.4359 46.0574 43.4858C46.029 43.5355 45.9908 43.5789 45.9451 43.6135C45.8994 43.6481 45.8472 43.6731 45.7916 43.687C45.736 43.7009 45.6783 43.7034 45.6217 43.6944C45.5651 43.6854 45.5109 43.665 45.4624 43.6345C45.3626 43.5765 45.2891 43.4822 45.2574 43.3712C45.2257 43.2603 45.2382 43.1413 45.2923 43.0394Z" fill="#C70039"/>
<path id="Vector_24" d="M46.121 40.0003C46.121 39.8819 46.1681 39.7684 46.2518 39.6847C46.3355 39.601 46.449 39.554 46.5674 39.554C46.6251 39.5539 46.6821 39.5656 46.7351 39.5882C46.7882 39.6109 46.836 39.6441 46.8758 39.6859C46.9155 39.7276 46.9464 39.777 46.9664 39.8311C46.9865 39.8851 46.9953 39.9427 46.9924 40.0003C46.9924 40.0561 46.9815 40.1114 46.9601 40.1629C46.9387 40.2145 46.9075 40.2614 46.868 40.3009C46.8285 40.3403 46.7817 40.3716 46.7301 40.393C46.6785 40.4144 46.6232 40.4254 46.5674 40.4254C46.5098 40.4283 46.4522 40.4194 46.3981 40.3993C46.3441 40.3793 46.2947 40.3484 46.253 40.3086C46.2112 40.2689 46.178 40.221 46.1553 40.168C46.1326 40.115 46.121 40.058 46.121 40.0003Z" fill="#C70039"/>
<path id="Vector_25" d="M45.2923 36.8968C45.2382 36.7949 45.2257 36.676 45.2574 36.565C45.2891 36.4541 45.3626 36.3597 45.4624 36.3017C45.5109 36.2713 45.5651 36.2509 45.6217 36.2419C45.6783 36.2329 45.736 36.2354 45.7916 36.2493C45.8472 36.2632 45.8994 36.2881 45.9451 36.3227C45.9908 36.3573 46.029 36.4008 46.0574 36.4505C46.1134 36.5499 46.1292 36.667 46.1015 36.7777C46.0739 36.8883 46.0049 36.9842 45.9088 37.0456C45.8586 37.0766 45.8027 37.0973 45.7445 37.1066C45.6863 37.1159 45.6268 37.1135 45.5695 37.0997C45.5122 37.0859 45.4582 37.0608 45.4106 37.026C45.363 36.9912 45.3228 36.9473 45.2923 36.8968Z" fill="#C70039"/>
<path id="Vector_26" d="M43.0606 34.7718C43.0115 34.7454 42.9685 34.7092 42.9341 34.6655C42.8997 34.6217 42.8748 34.5712 42.8608 34.5174C42.8468 34.4635 42.8441 34.4073 42.8529 34.3523C42.8617 34.2973 42.8817 34.2448 42.9118 34.1979C42.9384 34.1464 42.9752 34.1009 43.0201 34.0642C43.065 34.0275 43.1169 34.0003 43.1727 33.9844C43.2284 33.9685 43.2868 33.9641 43.3443 33.9716C43.4018 33.9791 43.4571 33.9982 43.507 34.0279C43.6031 34.0893 43.6721 34.1851 43.6997 34.2958C43.7274 34.4065 43.7117 34.5236 43.6557 34.623C43.6273 34.6727 43.589 34.7162 43.5433 34.7508C43.4976 34.7854 43.4454 34.8103 43.3898 34.8242C43.3342 34.8381 43.2765 34.8407 43.2199 34.8316C43.1633 34.8226 43.1091 34.8023 43.0606 34.7718Z" fill="#C70039"/>
</g>
</svg>
