<svg width="217" height="50" viewBox="0 0 217 50" fill="none" xmlns="http://www.w3.org/2000/svg">
<path d="M62.8681 32V15.08H74.2681V17.504H65.8441V22.184H73.7161V24.632H65.8441V29.552H74.2681V32H62.8681ZM77.1415 32V15.08H79.4695L89.2855 27.776H88.6615V15.08H91.5415V32H89.2135L79.4215 19.304H80.0215V32H77.1415ZM95.2587 32V15.08H106.659V17.504H98.2347V22.184H106.107V24.632H98.2347V29.552H106.659V32H95.2587ZM109.532 32V15.08H116.924C118.78 15.08 120.212 15.52 121.22 16.4C122.244 17.28 122.756 18.504 122.756 20.072C122.756 21.112 122.524 22 122.06 22.736C121.612 23.472 120.964 24.04 120.116 24.44C119.268 24.824 118.268 25.016 117.116 25.016L117.452 24.56H118.268C118.94 24.56 119.54 24.736 120.068 25.088C120.596 25.44 121.028 25.976 121.364 26.696L123.836 32H120.428L117.932 26.504C117.708 25.944 117.364 25.576 116.9 25.4C116.452 25.224 115.908 25.136 115.268 25.136H112.628V32H109.532ZM112.628 22.856H116.42C117.508 22.856 118.332 22.632 118.892 22.184C119.468 21.72 119.756 21.048 119.756 20.168C119.756 19.288 119.468 18.624 118.892 18.176C118.332 17.728 117.508 17.504 116.42 17.504H112.628V22.856ZM130.324 32V24.008L130.972 25.856L123.7 15.08H127.276L132.268 22.76H131.596L136.588 15.08H140.044L132.796 25.856L133.42 24.008V32H130.324ZM137.848 32L145.504 15.08H148.096L155.848 32H152.704L150.64 27.248L151.888 28.088H141.736L143.032 27.248L140.968 32H137.848ZM146.776 18.392L143.392 26.408L142.768 25.664H150.832L150.328 26.408L146.872 18.392H146.776ZM157.034 26.576V24.2H164.33V26.576H157.034ZM175.981 32.24C174.077 32.24 172.477 31.888 171.181 31.184C169.885 30.48 168.909 29.48 168.253 28.184C167.597 26.888 167.269 25.352 167.269 23.576C167.269 21.784 167.621 20.24 168.325 18.944C169.029 17.632 170.037 16.624 171.349 15.92C172.677 15.2 174.269 14.84 176.125 14.84C177.357 14.84 178.437 15.008 179.365 15.344C180.293 15.664 181.109 16.136 181.813 16.76L180.781 19.16C180.269 18.76 179.781 18.44 179.317 18.2C178.853 17.96 178.373 17.792 177.877 17.696C177.381 17.584 176.805 17.528 176.149 17.528C174.293 17.528 172.885 18.056 171.925 19.112C170.981 20.152 170.509 21.648 170.509 23.6C170.509 25.552 170.957 27.04 171.853 28.064C172.765 29.088 174.189 29.6 176.125 29.6C176.781 29.6 177.437 29.536 178.093 29.408C178.765 29.28 179.421 29.096 180.061 28.856L179.485 30.152V25.088H175.525V22.832H182.053V30.968C181.269 31.368 180.333 31.68 179.245 31.904C178.157 32.128 177.069 32.24 175.981 32.24ZM183.715 32L191.371 15.08H193.963L201.715 32H198.571L196.507 27.248L197.755 28.088H187.603L188.899 27.248L186.835 32H183.715ZM192.643 18.392L189.259 26.408L188.635 25.664H196.699L196.195 26.408L192.739 18.392H192.643ZM202.56 32V29.72L212.04 16.664V17.648H202.56V15.08H214.992V17.336L205.488 30.392V29.432H215.304V32H202.56Z" fill="white"/>
<path fill-rule="evenodd" clip-rule="evenodd" d="M10.4491 45.3031C4.13148 40.7586 0.00390625 33.3468 0.00390625 25C0.00390625 12.4478 9.3361 2.00685 21.4183 0.256851L9.65288 16.7928C3.73593 25.1079 2.94055 36.8519 9.65288 44.4598C9.90973 44.7526 10.1777 45.0326 10.4483 45.3031" fill="#C70039"/>
<path fill-rule="evenodd" clip-rule="evenodd" d="M25.0039 9.07541e-07C38.7736 9.07541e-07 50.0039 11.2303 50.0039 25C50.0039 38.7697 38.7736 50 25.0039 50C24.7325 50 24.4619 49.994 24.1922 49.9855C32.9662 48.643 38.5501 40.4889 38.7881 31.9897C38.5109 33.7189 37.9263 35.3844 37.0621 36.9076C34.7248 40.9923 30.289 43.7877 25.4474 43.4623C19.0458 43.0343 14.4268 37.6216 13.6023 31.5462C12.991 27.048 14.2736 22.1926 17.027 18.3228C23.8455 8.74059 25.3506 6.02997 22.146 0.164384C23.0947 0.0546283 24.0489 -0.000257408 25.0039 9.07541e-07Z" fill="#900C3F"/>
<path fill-rule="evenodd" clip-rule="evenodd" d="M26.5339 8.17465C28.5484 10.8485 31.515 16.0711 32.9894 19.2192C35.2882 24.1276 36.3977 29.2158 34.6546 33.25C33.8995 34.9983 32.7513 36.4991 31.2299 37.5582C30.1883 38.2928 29.008 38.8075 27.7609 39.0708C26.5138 39.3341 25.2262 39.3406 23.9765 39.0899C30.5852 37.7423 29.6846 28.4846 25.7334 24.5283C25.9902 30.7363 20.6554 33.6678 17.7924 34.5873C16.2376 31.8613 15.9354 28.3716 17.1075 25.2894C19.4602 19.1336 26.9945 15.3365 26.5347 8.17465" fill="white"/>
</svg>
